<svg width="1000" height="1000" viewBox="0 0 1000 1000" xmlns="http://www.w3.org/2000/svg"><defs/><path fill="#fe2315" transform="matrix(1.1383642934938327 0 0 1.1383642934938327 2.3414717967787784 -2.296218991778767)" d="M 563.06983310837 285.98967428169 L 563.06983310837 285.98967428169 C 538.46983310837 261.38967428169 498.06983310837 261.38967428169 473.46983310837 285.98967428169 L 464.06983310837 295.38967428169 L 454.66983310837 285.98967428169 C 430.06983310837 261.38967428169 389.66983310837 261.38967428169 365.06983310837 285.98967428169 L 365.06983310837 285.98967428169 C 340.46983310837 310.58967428169 340.46983310837 350.98967428169 365.06983310837 375.58967428169 L 374.46983310837 384.98967428169 L 464.06983310837 474.58967428169 L 553.66983310837 384.98967428169 L 563.06983310837 375.58967428169 C 587.66983310837 350.88967428169 587.66983310837 310.58967428169 563.06983310837 285.98967428169 Z"/><path fill="none" visibility="hidden" transform="matrix(1.1383642934938327 0 0 1.1383642934938327 2.3414717967787784 -2.296218991778767)" d="M 464.66983310837 346.98967428169 C 464.66983310837 346.98967428169 464.56983310837 346.88967428169 464.56983310837 346.88967428169 C 464.56983310837 346.88967428169 464.56983310837 346.88967428169 464.56983310837 346.88967428169 L 464.66983310837 346.98967428169 Z"/><path fill="none" visibility="hidden" transform="matrix(1.1383642934938327 0 0 1.1383642934938327 2.3414717967787784 -2.296218991778767)" d="M 464.46983310837 346.88967428169 C 464.46983310837 346.88967428169 464.96983310837 347.28967428169 464.66983310837 346.98967428169 L 464.46983310837 346.88967428169 C 464.46983310837 346.88967428169 464.46983310837 346.88967428169 464.46983310837 346.88967428169 Z"/><path fill="none" visibility="hidden" transform="matrix(1.1383642934938327 0 0 1.1383642934938327 2.3414717967787784 -2.296218991778767)" d="M 467.86983310837 372.98967428169 L 478.76983310837 384.68967428169 C 475.46983310837 381.18967428169 472.26983310837 377.68967428169 468.96983310837 374.18967428169 L 467.86983310837 372.98967428169 Z"/><path fill="#fe2315" transform="matrix(1.1383642934938327 0 0 1.1383642934938327 2.3414717967787784 -2.296218991778767)" d="M 483.76983310837 391.38967428169 C 480.06983310837 385.38967428169 477.06983310837 380.28967428169 474.76983310837 376.48967428169 C 475.16983310837 375.48967428169 475.66983310837 374.38967428169 476.06983310837 373.38967428169 C 481.56983310837 360.08967428169 493.46983310837 331.68967428169 499.06983310837 318.38967428169 C 516.46983310837 321.78967428169 533.86983310837 310.18967428169 541.16983310837 290.48967428169 C 548.76983310837 269.78967428169 541.16983310837 290.48967428169 541.26983310837 290.48967428169 C 541.26983310837 290.38967428169 577.16983310837 193.08967428169 574.96983310837 192.08967428169 C 572.76983310837 191.08967428169 549.26983310837 246.28967428169 531.96983310837 283.68967428169 L 525.76983310837 280.88967428169 C 540.56983310837 242.28967428169 563.66983310837 186.98967428169 561.56983310837 185.98967428169 C 559.46983310837 184.98967428169 534.16983310837 239.28967428169 515.66983310837 276.18967428169 L 509.46983310837 273.38967428169 C 525.46983310837 235.28967428169 550.26983310837 180.78967428169 548.16983310837 179.88967428169 C 545.96983310837 178.88967428169 518.96983310837 232.38967428169 499.26983310837 268.68967428169 L 493.06983310837 265.78967428169 C 510.26983310837 228.28967428169 536.86983310837 174.58967428169 534.76983310837 173.58967428169 C 532.56983310837 172.58967428169 492.76983310837 244.08967428169 481.96983310837 263.08967428169 C 472.46983310837 279.68967428169 474.36983310837 301.98967428169 488.16983310837 313.28967428169 C 483.26983310837 323.08967428169 470.66983310837 347.88967428169 464.66983310837 359.68967428169 L 462.46983310837 355.98967428169 C 462.66983310837 356.28967428169 462.26983310837 355.88967428169 462.26983310837 355.88967428169 C 462.26983310837 355.88967428169 462.26983310837 355.88967428169 462.36983310837 355.88967428169 C 462.36983310837 355.88967428169 462.36983310837 355.88967428169 462.36983310837 355.88967428169 C 454.26983310837 342.58967428169 446.16983310837 329.28967428169 438.16983310837 315.98967428169 C 459.46983310837 298.98967428169 462.56983310837 265.88967428169 444.46983310837 240.28967428169 C 425.56983310837 212.98967428169 386.36983310837 182.88967428169 363.46983310837 194.78967428169 C 341.36983310837 208.08967428169 346.46983310837 257.18967428169 359.86983310837 287.68967428169 C 372.16983310837 316.48967428169 402.06983310837 331.18967428169 427.66983310837 321.88967428169 C 430.36983310837 327.18967428169 434.76983310837 335.68967428169 438.76983310837 343.48967428169 L 456.06983310837 377.08967428169 C 430.06983310837 428.68967428169 403.96983310837 480.18967428169 377.96983310837 531.78967428169 C 374.96983310837 537.48967428169 377.16983310837 548.08967428169 385.06983310837 551.78967428169 C 392.96983310837 555.48967428169 402.46983310837 550.18967428169 404.86983310837 544.28967428169 C 425.36983310837 495.28967428169 445.86983310837 446.28967428169 466.36983310837 397.28967428169 C 490.96983310837 445.18967428169 515.56983310837 493.08967428169 540.16983310837 540.98967428169 C 543.06983310837 546.78967428169 552.86983310837 551.28967428169 560.46983310837 546.98967428169 C 568.06983310837 542.78967428169 569.36983310837 531.98967428169 565.96983310837 526.48967428169 C 543.26983310837 489.08967428169 504.36983310837 425.18967428169 483.76983310837 391.38967428169 Z"/><path fill="#ffffff" transform="matrix(1.1383642934938327 0 0 1.1383642934938327 2.3414717967787784 -2.296218991778767)" d="M 551.76983310837 539.08967428169 C 549.66983310837 538.48967428169 548.36983310837 537.28967428169 548.06983310837 536.68967428169 C 531.46983310837 504.28967428169 474.66983310837 393.78967428169 474.66983310837 393.78967428169 C 475.16983310837 394.48967428169 558.06983310837 530.98967428169 558.06983310837 530.98967428169 C 558.46983310837 531.58967428169 558.76983310837 533.38967428169 558.26983310837 535.38967428169 C 558.06983310837 536.28967428169 557.36983310837 537.98967428169 555.86983310837 538.88967428169 C 554.46983310837 539.58967428169 552.86983310837 539.38967428169 551.76983310837 539.08967428169 L 551.76983310837 539.08967428169 Z"/><path fill="#ffffff" transform="matrix(1.1383642934938327 0 0 1.1383642934938327 2.3414717967787784 -2.296218991778767)" d="M 366.76983310837 206.98967428169 C 364.56983310837 217.68967428169 363.66983310837 228.38967428169 364.06983310837 239.08967428169 C 364.36983310837 244.38967428169 364.86983310837 249.78967428169 365.76983310837 254.98967428169 C 366.66983310837 260.18967428169 368.06983310837 265.28967428169 370.06983310837 270.18967428169 C 373.86983310837 279.98967428169 380.36983310837 288.58967428169 388.46983310837 295.38967428169 C 396.56983310837 302.28967428169 406.26983310837 307.08967428169 416.46983310837 310.98967428169 C 405.76983310837 308.88967428169 395.26983310837 304.88967428169 386.26983310837 298.18967428169 C 381.76983310837 294.88967428169 377.76983310837 290.88967428169 374.26983310837 286.48967428169 C 370.76983310837 282.08967428169 368.06983310837 277.08967428169 365.86983310837 271.88967428169 C 361.66983310837 261.38967428169 360.26983310837 250.18967428169 360.46983310837 239.18967428169 C 360.76983310837 228.08967428169 362.66983310837 217.08967428169 366.76983310837 206.98967428169 Z"/><path fill="#ffffff" transform="matrix(1.1383642934938327 0 0 1.1383642934938327 2.3414717967787784 -2.296218991778767)" d="M 392.46983310837 542.38967428169 C 391.36983310837 542.78967428169 389.86983310837 543.08967428169 388.36983310837 542.38967428169 C 386.76983310837 541.68967428169 386.06983310837 540.08967428169 385.76983310837 539.08967428169 C 385.06983310837 537.08967428169 385.26983310837 535.28967428169 385.66983310837 534.68967428169 C 385.66983310837 534.68967428169 457.66983310837 392.18967428169 458.06983310837 391.38967428169 C 458.06983310837 391.38967428169 410.16983310837 506.08967428169 396.06983310837 539.58967428169 C 395.66983310837 540.28967428169 394.46983310837 541.58967428169 392.46983310837 542.38967428169 L 392.46983310837 542.38967428169 Z"/><path fill="#fe2315" transform="matrix(1.1383642934938327 0 0 1.1383642934938327 2.3414717967787784 -2.296218991778767)" d="M 645.96983310837 505.18967428169 C 632.36983310837 523.78967428169 616.26983310837 540.78967428169 597.46983310837 554.48967428169 L 590.46983310837 559.68967428169 L 583.16983310837 564.38967428169 L 579.46983310837 566.78967428169 L 575.66983310837 568.98967428169 L 568.06983310837 573.28967428169 L 560.26983310837 577.18967428169 L 556.36983310837 579.08967428169 L 552.36983310837 580.78967428169 L 544.26983310837 584.18967428169 L 536.06983310837 587.18967428169 C 491.86983310837 602.48967428169 442.76983310837 603.98967428169 397.46983310837 590.98967428169 C 351.96983310837 578.18967428169 310.76983310837 550.78967428169 280.86983310837 514.08967428169 C 250.86983310837 477.38967428169 232.56983310837 431.28967428169 229.06983310837 383.98967428169 C 228.46983310837 378.08967428169 228.56983310837 372.18967428169 228.36983310837 366.18967428169 C 228.56983310837 360.28967428169 228.56983310837 354.28967428169 229.16983310837 348.38967428169 C 229.46983310837 342.48967428169 230.36983310837 336.58967428169 231.16983310837 330.68967428169 C 232.26983310837 324.88967428169 233.16983310837 318.98967428169 234.56983310837 313.28967428169 C 235.76983310837 307.48967428169 237.56983310837 301.78967428169 239.16983310837 296.08967428169 C 241.06983310837 290.48967428169 242.86983310837 284.88967428169 245.16983310837 279.38967428169 C 249.56983310837 268.38967428169 254.66983310837 257.68967428169 260.86983310837 247.58967428169 C 285.26983310837 206.98967428169 321.86983310837 173.68967428169 364.96983310837 154.38967428169 C 375.66983310837 149.38967428169 386.86983310837 145.58967428169 398.06983310837 142.28967428169 C 409.36983310837 138.98967428169 420.96983310837 136.78967428169 432.56983310837 135.38967428169 C 444.16983310837 133.88967428169 455.96983310837 133.58967428169 467.66983310837 133.88967428169 C 479.36983310837 134.18967428169 491.06983310837 135.58967428169 502.56983310837 137.58967428169 C 514.06983310837 139.68967428169 525.36983310837 142.78967428169 536.36983310837 146.68967428169 C 541.86983310837 148.48967428169 547.26983310837 150.78967428169 552.66983310837 153.08967428169 C 557.96983310837 155.48967428169 563.26983310837 157.98967428169 568.26983310837 160.78967428169 C 578.46983310837 166.38967428169 588.36983310837 172.48967428169 597.56983310837 179.48967428169 C 606.76983310837 186.48967428169 615.46983310837 194.18967428169 623.46983310837 202.38967428169 C 589.36983310837 171.38967428169 546.46983310837 150.68967428169 501.46983310837 144.18967428169 C 456.56983310837 137.38967428169 409.96983310837 144.38967428169 369.36983310837 163.98967428169 C 359.26983310837 168.88967428169 349.46983310837 174.48967428169 340.16983310837 180.88967428169 C 330.96983310837 187.28967428169 322.06983310837 194.28967428169 313.86983310837 201.78967428169 C 305.66983310837 209.48967428169 298.06983310837 217.68967428169 290.96983310837 226.38967428169 C 283.86983310837 235.08967428169 277.66983310837 244.48967428169 272.06983310837 254.08967428169 C 266.36983310837 263.78967428169 261.56983310837 273.88967428169 257.46983310837 284.28967428169 C 255.26983310837 289.48967428169 253.66983310837 294.78967428169 251.86983310837 300.08967428169 C 250.36983310837 305.48967428169 248.66983310837 310.78967428169 247.56983310837 316.28967428169 C 246.16983310837 321.68967428169 245.36983310837 327.28967428169 244.36983310837 332.78967428169 C 243.66983310837 338.38967428169 242.86983310837 343.88967428169 242.56983310837 349.48967428169 C 242.06983310837 355.08967428169 242.06983310837 360.68967428169 241.86983310837 366.28967428169 C 242.06983310837 371.88967428169 241.96983310837 377.48967428169 242.56983310837 383.08967428169 C 242.86983310837 388.68967428169 243.66983310837 394.18967428169 244.36983310837 399.78967428169 C 245.36983310837 405.28967428169 246.16983310837 410.78967428169 247.46983310837 416.28967428169 C 248.56983310837 421.78967428169 250.16983310837 427.08967428169 251.66983310837 432.48967428169 C 253.46983310837 437.78967428169 255.06983310837 443.08967428169 257.26983310837 448.28967428169 C 261.36983310837 458.68967428169 266.16983310837 468.78967428169 271.86983310837 478.48967428169 C 277.56983310837 488.08967428169 283.76983310837 497.48967428169 290.76983310837 506.18967428169 C 297.76983310837 514.88967428169 305.36983310837 523.18967428169 313.56983310837 530.88967428169 C 321.86983310837 538.48967428169 330.56983310837 545.48967428169 339.86983310837 551.88967428169 C 358.46983310837 564.38967428169 378.86983310837 574.38967428169 400.36983310837 580.98967428169 C 421.86983310837 587.68967428169 444.36983310837 590.98967428169 466.96983310837 590.98967428169 C 489.56983310837 590.88967428169 512.26983310837 587.88967428169 533.86983310837 581.08967428169 L 541.96983310837 578.58967428169 L 549.96983310837 575.58967428169 L 553.96983310837 574.08967428169 L 557.86983310837 572.38967428169 L 565.66983310837 568.88967428169 L 573.26983310837 564.98967428169 L 577.06983310837 562.98967428169 L 580.76983310837 560.78967428169 L 588.16983310837 556.48967428169 L 595.26983310837 551.78967428169 L 598.86983310837 549.38967428169 L 602.26983310837 546.78967428169 L 609.16983310837 541.68967428169 L 615.76983310837 536.18967428169 L 619.06983310837 533.38967428169 L 622.16983310837 530.48967428169 L 628.46983310837 524.58967428169 L 634.46983310837 518.38967428169 L 637.46983310837 515.28967428169 L 640.26983310837 511.98967428169 L 645.96983310837 505.18967428169 Z"/><path fill="#fe2315" transform="matrix(1.1383642934938327 0 0 1.1383642934938327 2.3414717967787784 -2.296218991778767)" d="M 346.46983310837 493.58967428169 C 328.96983310837 481.18967428169 313.96983310837 464.98967428169 302.86983310837 446.38967428169 C 291.76983310837 427.68967428169 284.76983310837 406.68967428169 281.96983310837 385.08967428169 C 280.76983310837 374.28967428169 280.56983310837 363.38967428169 281.36983310837 352.48967428169 C 282.26983310837 341.68967428169 284.26983310837 330.88967428169 287.46983310837 320.48967428169 C 290.56983310837 310.08967428169 294.76983310837 299.98967428169 299.96983310837 290.58967428169 C 305.26983310837 281.18967428169 311.36983310837 272.18967428169 318.46983310837 264.08967428169 C 305.76983310837 281.38967428169 296.36983310837 300.88967428169 290.86983310837 321.48967428169 C 285.26983310837 341.98967428169 284.06983310837 363.48967428169 286.46983310837 384.48967428169 C 289.06983310837 405.48967428169 295.66983310837 425.98967428169 305.86983310837 444.58967428169 C 316.26983310837 463.08967428169 330.06983310837 479.78967428169 346.46983310837 493.58967428169 Z"/><path id="text" transform="matrix(1.1949215832710978 0 0 1.1949215832710978 -8.849887976101568 713.2907542278133)" d="M 266.9140625 77.6585500556 C 266.9140625 81.1273000556 266.4375 84.4163625556 265.484375 87.5257375556 C 264.53125 90.6351125556 263.203125 93.5179250556 261.5 96.1741750556 C 259.796875 98.8304250556 257.7734375 101.2288625556 255.4296875 103.3694875556 C 253.0859375 105.5101125556 250.5 107.3382375556 247.671875 108.8538625556 C 244.84375 110.3694875556 241.84375 111.5335500556 238.671875 112.3460500556 C 235.5 113.1585500556 232.2421875 113.5648000556 228.8984375 113.5648000556 C 227.2109375 113.5648000556 225.25 113.5491750556 223.015625 113.5179250556 C 220.78125 113.4866750556 218.5 113.4085500556 216.171875 113.2835500556 C 213.84375 113.1585500556 211.59375 112.9554250556 209.421875 112.6741750556 C 207.25 112.3929250556 205.3984375 112.0179250556 203.8671875 111.5491750556 L 203.8671875 111.0804250556 C 203.8671875 107.1741750556 203.90625 103.2991750556 203.984375 99.4554250556 C 204.0625 95.6116750556 204.1484375 91.7366750556 204.2421875 87.8304250556 C 204.3984375 80.6741750556 204.5625 73.5569875556 204.734375 66.4788625556 C 204.90625 59.4007375556 205.0859375 52.2835500556 205.2734375 45.1273000556 C 209.5859375 44.4398000556 213.953125 43.9476125556 218.375 43.6507375556 C 222.796875 43.3538625556 227.2109375 43.2054250556 231.6171875 43.2054250556 C 234.7734375 43.2054250556 237.8359375 43.6116750556 240.8046875 44.4241750556 C 243.7734375 45.2366750556 246.5625 46.3929250556 249.171875 47.8929250556 C 251.78125 49.3929250556 254.171875 51.1819875556 256.34375 53.2601125556 C 258.515625 55.3382375556 260.3828125 57.6585500556 261.9453125 60.2210500556 C 263.5078125 62.7835500556 264.7265625 65.5335500556 265.6015625 68.4710500556 C 266.4765625 71.4085500556 266.9140625 74.4710500556 266.9140625 77.6585500556 Z M 253.9765625 76.5804250556 C 253.9765625 71.8929250556 253.4453125 67.7679250556 252.3828125 64.2054250556 C 251.3203125 60.6429250556 249.6640625 57.6507375556 247.4140625 55.2288625556 C 245.1640625 52.8069875556 242.3125 50.9788625556 238.859375 49.7444875556 C 235.40625 48.5101125556 231.2890625 47.8929250556 226.5078125 47.8929250556 C 225.1640625 47.8929250556 223.8046875 47.9007375556 222.4296875 47.9163625556 C 221.0546875 47.9319875556 219.6640625 47.9866750556 218.2578125 48.0804250556 L 215.0703125 108.2679250556 C 217.4140625 108.7679250556 219.7890625 109.0413625556 222.1953125 109.0882375556 C 224.6015625 109.1351125556 226.9609375 109.1585500556 229.2734375 109.1585500556 C 232.0546875 109.1585500556 234.6015625 108.6898000556 236.9140625 107.7523000556 C 239.2265625 106.8148000556 241.296875 105.5413625556 243.125 103.9319875556 C 244.953125 102.3226125556 246.546875 100.4398000556 247.90625 98.2835500556 C 249.265625 96.1273000556 250.3984375 93.8460500556 251.3046875 91.4398000556 C 252.2109375 89.0335500556 252.8828125 86.5569875556 253.3203125 84.0101125556 C 253.7578125 81.4632375556 253.9765625 78.9866750556 253.9765625 76.5804250556 Z M 299.8203125 98.4710500556 C 297.3515625 98.4710500556 294.90625 98.1507375556 292.484375 97.5101125556 C 290.0625 96.8694875556 287.8671875 95.8460500556 285.8984375 94.4398000556 C 285.9296875 95.6585500556 286.0078125 96.9085500556 286.1328125 98.1898000556 C 286.2578125 99.4710500556 286.46875 100.7132375556 286.765625 101.9163625556 C 287.0625 103.1194875556 287.453125 104.2523000556 287.9375 105.3148000556 C 288.421875 106.3773000556 289.046875 107.3069875556 289.8125 108.1038625556 C 290.578125 108.9007375556 291.5 109.5335500556 292.578125 110.0023000556 C 293.65625 110.4710500556 294.9453125 110.7054250556 296.4453125 110.7054250556 C 297.8515625 110.7054250556 299.1640625 110.4476125556 300.3828125 109.9319875556 C 301.6015625 109.4163625556 302.671875 108.7210500556 303.59375 107.8460500556 C 304.515625 106.9710500556 305.2734375 105.9398000556 305.8671875 104.7523000556 C 306.4609375 103.5648000556 306.8671875 102.2835500556 307.0859375 100.9085500556 L 318.6171875 103.4866750556 C 317.7109375 105.4241750556 316.4375 107.0648000556 314.796875 108.4085500556 C 313.15625 109.7523000556 311.3359375 110.8382375556 309.3359375 111.6663625556 C 307.3359375 112.4944875556 305.25 113.0960500556 303.078125 113.4710500556 C 300.90625 113.8460500556 298.8203125 114.0335500556 296.8203125 114.0335500556 C 293.2265625 114.0335500556 290.0234375 113.5023000556 287.2109375 112.4398000556 C 284.3984375 111.3773000556 282.03125 109.8460500556 280.109375 107.8460500556 C 278.1875 105.8460500556 276.71875 103.4163625556 275.703125 100.5569875556 C 274.6875 97.6976125556 274.1796875 94.4866750556 274.1796875 90.9241750556 C 274.1796875 87.4554250556 274.7734375 84.1819875556 275.9609375 81.1038625556 C 277.1484375 78.0257375556 278.8046875 75.3460500556 280.9296875 73.0648000556 C 283.0546875 70.7835500556 285.609375 68.9788625556 288.59375 67.6507375556 C 291.578125 66.3226125556 294.8671875 65.6585500556 298.4609375 65.6585500556 C 301.0859375 65.6585500556 303.6953125 65.9788625556 306.2890625 66.6194875556 C 308.8828125 67.2601125556 311.2109375 68.2601125556 313.2734375 69.6194875556 C 315.3359375 70.9788625556 317 72.7210500556 318.265625 74.8460500556 C 319.53125 76.9710500556 320.1640625 79.5335500556 320.1640625 82.5335500556 C 320.1640625 85.4710500556 319.578125 87.9476125556 318.40625 89.9632375556 C 317.234375 91.9788625556 315.6953125 93.6194875556 313.7890625 94.8851125556 C 311.8828125 96.1507375556 309.7109375 97.0648000556 307.2734375 97.6273000556 C 304.8359375 98.1898000556 302.3515625 98.4710500556 299.8203125 98.4710500556 Z M 297.8046875 69.1273000556 C 296.3671875 69.1273000556 295.09375 69.4163625556 293.984375 69.9944875556 C 292.875 70.5726125556 291.890625 71.3616750556 291.03125 72.3616750556 C 290.171875 73.3616750556 289.4453125 74.5023000556 288.8515625 75.7835500556 C 288.2578125 77.0648000556 287.7578125 78.4085500556 287.3515625 79.8148000556 C 286.9453125 81.2210500556 286.6328125 82.6429250556 286.4140625 84.0804250556 C 286.1953125 85.5179250556 286.0546875 86.8616750556 285.9921875 88.1116750556 C 287.1796875 90.1429250556 288.7578125 91.8069875556 290.7265625 93.1038625556 C 292.6953125 94.4007375556 294.9765625 95.0491750556 297.5703125 95.0491750556 C 299.2265625 95.0491750556 300.7109375 94.6663625556 302.0234375 93.9007375556 C 303.3359375 93.1351125556 304.4453125 92.1429250556 305.3515625 90.9241750556 C 306.2578125 89.7054250556 306.953125 88.3460500556 307.4375 86.8460500556 C 307.921875 85.3460500556 308.1640625 83.8460500556 308.1640625 82.3460500556 C 308.1640625 80.8460500556 307.9453125 79.3069875556 307.5078125 77.7288625556 C 307.0703125 76.1507375556 306.421875 74.7288625556 305.5625 73.4632375556 C 304.703125 72.1976125556 303.625 71.1585500556 302.328125 70.3460500556 C 301.03125 69.5335500556 299.5234375 69.1273000556 297.8046875 69.1273000556 Z M 341.5390625 36.5491750556 L 339.2421875 111.8304250556 L 330.2890625 112.5804250556 L 327.9921875 37.8148000556 L 341.5390625 36.5491750556 Z M 366.6640625 56.3304250556 C 366.6640625 57.4554250556 366.453125 58.5179250556 366.03125 59.5179250556 C 365.609375 60.5179250556 365.0234375 61.3929250556 364.2734375 62.1429250556 C 363.5234375 62.8929250556 362.6484375 63.4866750556 361.6484375 63.9241750556 C 360.6484375 64.3616750556 359.5703125 64.5804250556 358.4140625 64.5804250556 C 357.2578125 64.5804250556 356.171875 64.3616750556 355.15625 63.9241750556 C 354.140625 63.4866750556 353.2578125 62.8929250556 352.5078125 62.1429250556 C 351.7578125 61.3929250556 351.1640625 60.5179250556 350.7265625 59.5179250556 C 350.2890625 58.5179250556 350.0703125 57.4554250556 350.0703125 56.3304250556 C 350.0703125 55.1741750556 350.2890625 54.0882375556 350.7265625 53.0726125556 C 351.1640625 52.0569875556 351.7578125 51.1741750556 352.5078125 50.4241750556 C 353.2578125 49.6741750556 354.140625 49.0804250556 355.15625 48.6429250556 C 356.171875 48.2054250556 357.2578125 47.9866750556 358.4140625 47.9866750556 C 359.5703125 47.9866750556 360.6484375 48.2054250556 361.6484375 48.6429250556 C 362.6484375 49.0804250556 363.5234375 49.6741750556 364.2734375 50.4241750556 C 365.0234375 51.1741750556 365.609375 52.0569875556 366.03125 53.0726125556 C 366.453125 54.0882375556 366.6640625 55.1741750556 366.6640625 56.3304250556 Z M 365.0703125 69.3148000556 L 361.5078125 114.4085500556 L 352.4609375 113.4710500556 L 351.8984375 68.6116750556 L 365.0703125 69.3148000556 Z M 420.2421875 81.6898000556 L 408.1484375 83.0491750556 L 408.1484375 81.1273000556 C 408.1484375 79.6273000556 407.90625 78.1038625556 407.421875 76.5569875556 C 406.9375 75.0101125556 406.234375 73.5960500556 405.3125 72.3148000556 C 404.390625 71.0335500556 403.2578125 69.9866750556 401.9140625 69.1741750556 C 400.5703125 68.3616750556 399.0390625 67.9554250556 397.3203125 67.9554250556 C 395.6328125 67.9554250556 394.1484375 68.3226125556 392.8671875 69.0569875556 C 391.5859375 69.7913625556 390.4765625 70.7601125556 389.5390625 71.9632375556 C 388.6015625 73.1663625556 387.828125 74.5491750556 387.21875 76.1116750556 C 386.609375 77.6741750556 386.125 79.2835500556 385.765625 80.9398000556 C 385.40625 82.5960500556 385.1484375 84.2366750556 384.9921875 85.8616750556 C 384.8359375 87.4866750556 384.7578125 88.9710500556 384.7578125 90.3148000556 C 384.7578125 91.5648000556 384.8046875 92.9163625556 384.8984375 94.3694875556 C 384.9921875 95.8226125556 385.1796875 97.2835500556 385.4609375 98.7523000556 C 385.7421875 100.2210500556 386.140625 101.6351125556 386.65625 102.9944875556 C 387.171875 104.3538625556 387.8515625 105.5569875556 388.6953125 106.6038625556 C 389.5390625 107.6507375556 390.5625 108.4944875556 391.765625 109.1351125556 C 392.96875 109.7757375556 394.3984375 110.0960500556 396.0546875 110.0960500556 C 397.7109375 110.0960500556 399.21875 109.7054250556 400.578125 108.9241750556 C 401.9375 108.1429250556 403.109375 107.1351125556 404.09375 105.9007375556 C 405.078125 104.6663625556 405.8671875 103.2991750556 406.4609375 101.7991750556 C 407.0546875 100.2991750556 407.4296875 98.8460500556 407.5859375 97.4398000556 L 420.0546875 97.7210500556 C 419.4921875 100.3460500556 418.3515625 102.6429250556 416.6328125 104.6116750556 C 414.9140625 106.5804250556 412.890625 108.2288625556 410.5625 109.5569875556 C 408.234375 110.8851125556 405.7421875 111.8851125556 403.0859375 112.5569875556 C 400.4296875 113.2288625556 397.8671875 113.5648000556 395.3984375 113.5648000556 C 392.1171875 113.5648000556 389.1015625 112.9866750556 386.3515625 111.8304250556 C 383.6015625 110.6741750556 381.234375 109.0804250556 379.25 107.0491750556 C 377.265625 105.0179250556 375.71875 102.6038625556 374.609375 99.8069875556 C 373.5 97.0101125556 372.9453125 93.9866750556 372.9453125 90.7366750556 C 372.9453125 87.1116750556 373.5390625 83.7132375556 374.7265625 80.5413625556 C 375.9140625 77.3694875556 377.5859375 74.6116750556 379.7421875 72.2679250556 C 381.8984375 69.9241750556 384.46875 68.0804250556 387.453125 66.7366750556 C 390.4375 65.3929250556 393.7265625 64.7210500556 397.3203125 64.7210500556 C 400.2578125 64.7210500556 402.984375 65.0648000556 405.5 65.7523000556 C 408.015625 66.4398000556 410.2578125 67.4866750556 412.2265625 68.8929250556 C 414.1953125 70.2991750556 415.859375 72.0648000556 417.21875 74.1898000556 C 418.578125 76.3148000556 419.5859375 78.8148000556 420.2421875 81.6898000556 Z M 443.7734375 56.3304250556 C 443.7734375 57.4554250556 443.5625 58.5179250556 443.140625 59.5179250556 C 442.71875 60.5179250556 442.1328125 61.3929250556 441.3828125 62.1429250556 C 440.6328125 62.8929250556 439.7578125 63.4866750556 438.7578125 63.9241750556 C 437.7578125 64.3616750556 436.6796875 64.5804250556 435.5234375 64.5804250556 C 434.3671875 64.5804250556 433.28125 64.3616750556 432.265625 63.9241750556 C 431.25 63.4866750556 430.3671875 62.8929250556 429.6171875 62.1429250556 C 428.8671875 61.3929250556 428.2734375 60.5179250556 427.8359375 59.5179250556 C 427.3984375 58.5179250556 427.1796875 57.4554250556 427.1796875 56.3304250556 C 427.1796875 55.1741750556 427.3984375 54.0882375556 427.8359375 53.0726125556 C 428.2734375 52.0569875556 428.8671875 51.1741750556 429.6171875 50.4241750556 C 430.3671875 49.6741750556 431.25 49.0804250556 432.265625 48.6429250556 C 433.28125 48.2054250556 434.3671875 47.9866750556 435.5234375 47.9866750556 C 436.6796875 47.9866750556 437.7578125 48.2054250556 438.7578125 48.6429250556 C 439.7578125 49.0804250556 440.6328125 49.6741750556 441.3828125 50.4241750556 C 442.1328125 51.1741750556 442.71875 52.0569875556 443.140625 53.0726125556 C 443.5625 54.0882375556 443.7734375 55.1741750556 443.7734375 56.3304250556 Z M 442.1796875 69.3148000556 L 438.6171875 114.4085500556 L 429.5703125 113.4710500556 L 429.0078125 68.6116750556 L 442.1796875 69.3148000556 Z M 449.6796875 110.7054250556 C 450.0234375 107.7679250556 450.5 104.4554250556 451.109375 100.7679250556 C 451.71875 97.0804250556 452.4375 93.2132375556 453.265625 89.1663625556 C 454.09375 85.1194875556 455 80.9944875556 455.984375 76.7913625556 C 456.96875 72.5882375556 458.015625 68.4944875556 459.125 64.5101125556 C 460.234375 60.5257375556 461.3828125 56.7523000556 462.5703125 53.1898000556 C 463.7578125 49.6273000556 464.9609375 46.4554250556 466.1796875 43.6741750556 L 477.0078125 43.0179250556 C 477.9453125 44.8304250556 478.953125 46.9398000556 480.03125 49.3460500556 C 481.109375 51.7523000556 482.234375 54.3382375556 483.40625 57.1038625556 C 484.578125 59.8694875556 485.7734375 62.7679250556 486.9921875 65.7991750556 C 488.2109375 68.8304250556 489.4140625 71.9007375556 490.6015625 75.0101125556 C 491.7890625 78.1194875556 492.9453125 81.2054250556 494.0703125 84.2679250556 C 495.1953125 87.3304250556 496.2578125 90.2835500556 497.2578125 93.1273000556 C 497.8828125 89.8773000556 498.6328125 86.2444875556 499.5078125 82.2288625556 C 500.3828125 78.2132375556 501.375 74.0413625556 502.484375 69.7132375556 C 503.59375 65.3851125556 504.8046875 60.9944875556 506.1171875 56.5413625556 C 507.4296875 52.0882375556 508.8359375 47.7991750556 510.3359375 43.6741750556 L 523.0859375 43.0179250556 C 524.9609375 47.9866750556 526.9765625 53.7991750556 529.1328125 60.4554250556 C 530.9765625 66.1741750556 533.078125 73.1429250556 535.4375 81.3616750556 C 537.796875 89.5804250556 540.2421875 99.0023000556 542.7734375 109.6273000556 L 526.4609375 113.0023000556 C 526.4296875 111.6898000556 526.328125 110.0257375556 526.15625 108.0101125556 C 525.984375 105.9944875556 525.75 103.7523000556 525.453125 101.2835500556 C 525.15625 98.8148000556 524.8046875 96.1663625556 524.3984375 93.3382375556 C 523.9921875 90.5101125556 523.546875 87.6116750556 523.0625 84.6429250556 C 522.578125 81.6741750556 522.046875 78.6819875556 521.46875 75.6663625556 C 520.890625 72.6507375556 520.28125 69.7288625556 519.640625 66.9007375556 C 519 64.0726125556 518.328125 61.3851125556 517.625 58.8382375556 C 516.921875 56.2913625556 516.2109375 53.9866750556 515.4921875 51.9241750556 C 514.3984375 54.9554250556 513.3671875 58.0726125556 512.3984375 61.2757375556 C 511.4296875 64.4788625556 510.53125 67.6741750556 509.703125 70.8616750556 C 508.875 74.0491750556 508.109375 77.1741750556 507.40625 80.2366750556 C 506.703125 83.2991750556 506.0703125 86.1898000556 505.5078125 88.9085500556 C 504.1953125 95.3148000556 503.0546875 101.5804250556 502.0859375 107.7054250556 L 490.9296875 109.1585500556 C 490.9296875 109.1898000556 490.671875 108.4007375556 490.15625 106.7913625556 C 489.640625 105.1819875556 488.9140625 103.0101125556 487.9765625 100.2757375556 C 487.0390625 97.5413625556 485.9296875 94.3460500556 484.6484375 90.6898000556 C 483.3671875 87.0335500556 481.9765625 83.1741750556 480.4765625 79.1116750556 C 478.9765625 75.0491750556 477.390625 70.8773000556 475.71875 66.5960500556 C 474.046875 62.3148000556 472.3671875 58.1898000556 470.6796875 54.2210500556 C 469.3671875 58.3460500556 468.2421875 62.7991750556 467.3046875 67.5804250556 C 466.3671875 72.3616750556 465.578125 77.2991750556 464.9375 82.3929250556 C 464.296875 87.4866750556 463.7734375 92.6351125556 463.3671875 97.8382375556 C 462.9609375 103.0413625556 462.6484375 108.0960500556 462.4296875 113.0023000556 L 449.6796875 110.7054250556 Z M 580.9765625 111.0804250556 L 582.1484375 106.1585500556 C 581.0546875 107.1273000556 579.84375 108.0023000556 578.515625 108.7835500556 C 577.1875 109.5648000556 575.8203125 110.2288625556 574.4140625 110.7757375556 C 573.0078125 111.3226125556 571.609375 111.7444875556 570.21875 112.0413625556 C 568.828125 112.3382375556 567.5546875 112.4866750556 566.3984375 112.4866750556 C 564.3671875 112.4866750556 562.2734375 112.1898000556 560.1171875 111.5960500556 C 557.9609375 111.0023000556 556.0078125 110.1116750556 554.2578125 108.9241750556 C 552.5078125 107.7366750556 551.0703125 106.2523000556 549.9453125 104.4710500556 C 548.8203125 102.6898000556 548.2578125 100.6273000556 548.2578125 98.2835500556 C 548.2578125 95.2210500556 548.7890625 92.5648000556 549.8515625 90.3148000556 C 550.9140625 88.0648000556 552.359375 86.2054250556 554.1875 84.7366750556 C 556.015625 83.2679250556 558.1640625 82.1819875556 560.6328125 81.4788625556 C 563.1015625 80.7757375556 565.7578125 80.4241750556 568.6015625 80.4241750556 C 569.9453125 80.4241750556 571.3203125 80.5335500556 572.7265625 80.7523000556 C 574.1328125 80.9710500556 575.5078125 81.2991750556 576.8515625 81.7366750556 C 578.1953125 82.1741750556 579.4765625 82.7523000556 580.6953125 83.4710500556 C 581.9140625 84.1898000556 583.0078125 85.0335500556 583.9765625 86.0023000556 C 583.8828125 84.3148000556 583.65625 82.5335500556 583.296875 80.6585500556 C 582.9375 78.7835500556 582.375 77.0726125556 581.609375 75.5257375556 C 580.84375 73.9788625556 579.8203125 72.6976125556 578.5390625 71.6819875556 C 577.2578125 70.6663625556 575.6328125 70.1585500556 573.6640625 70.1585500556 C 570.7890625 70.1585500556 568.359375 70.9007375556 566.375 72.3851125556 C 564.390625 73.8694875556 563.0234375 76.0179250556 562.2734375 78.8304250556 L 550.0859375 77.5648000556 C 550.8359375 75.6273000556 551.8984375 73.9163625556 553.2734375 72.4319875556 C 554.6484375 70.9476125556 556.203125 69.7054250556 557.9375 68.7054250556 C 559.671875 67.7054250556 561.5234375 66.9476125556 563.4921875 66.4319875556 C 565.4609375 65.9163625556 567.4453125 65.6585500556 569.4453125 65.6585500556 C 572.5078125 65.6585500556 575.25 66.0960500556 577.671875 66.9710500556 C 580.09375 67.8460500556 582.2265625 69.0491750556 584.0703125 70.5804250556 C 585.9140625 72.1116750556 587.4765625 73.9163625556 588.7578125 75.9944875556 C 590.0390625 78.0726125556 591.0859375 80.3069875556 591.8984375 82.6976125556 C 592.7109375 85.0882375556 593.3046875 87.5882375556 593.6796875 90.1976125556 C 594.0546875 92.8069875556 594.2421875 95.4085500556 594.2421875 98.0023000556 C 594.2421875 100.3148000556 594.1171875 102.6038625556 593.8671875 104.8694875556 C 593.6171875 107.1351125556 593.2578125 109.3929250556 592.7890625 111.6429250556 L 580.9765625 111.0804250556 Z M 583.4609375 97.8148000556 C 583.5546875 97.0960500556 583.625 96.3929250556 583.671875 95.7054250556 C 583.71875 95.0179250556 583.7734375 94.3148000556 583.8359375 93.5960500556 C 583.6796875 92.1273000556 583.1640625 90.8226125556 582.2890625 89.6819875556 C 581.4140625 88.5413625556 580.3515625 87.5726125556 579.1015625 86.7757375556 C 577.8515625 85.9788625556 576.4921875 85.3773000556 575.0234375 84.9710500556 C 573.5546875 84.5648000556 572.1171875 84.3616750556 570.7109375 84.3616750556 C 569.0859375 84.3616750556 567.5703125 84.6351125556 566.1640625 85.1819875556 C 564.7578125 85.7288625556 563.5390625 86.5023000556 562.5078125 87.5023000556 C 561.4765625 88.5023000556 560.6640625 89.6898000556 560.0703125 91.0648000556 C 559.4765625 92.4398000556 559.1796875 93.9554250556 559.1796875 95.6116750556 C 559.1796875 97.2991750556 559.4375 98.8382375556 559.953125 100.2288625556 C 560.46875 101.6194875556 561.1953125 102.8226125556 562.1328125 103.8382375556 C 563.0703125 104.8538625556 564.21875 105.6429250556 565.578125 106.2054250556 C 566.9375 106.7679250556 568.4609375 107.0491750556 570.1484375 107.0491750556 C 571.6484375 107.0491750556 573.1171875 106.8304250556 574.5546875 106.3929250556 C 575.9921875 105.9554250556 577.3125 105.3382375556 578.515625 104.5413625556 C 579.71875 103.7444875556 580.75 102.7757375556 581.609375 101.6351125556 C 582.46875 100.4944875556 583.0859375 99.2210500556 583.4609375 97.8148000556 Z M 638.5859375 113.5648000556 C 635.9609375 109.8148000556 633.390625 106.3382375556 630.875 103.1351125556 C 628.359375 99.9319875556 625.7734375 96.9398000556 623.1171875 94.1585500556 C 620.5859375 97.1898000556 618.1328125 100.2913625556 615.7578125 103.4632375556 C 613.3828125 106.6351125556 611.1640625 109.9398000556 609.1015625 113.3773000556 L 601.6484375 107.5179250556 C 604.8359375 104.8616750556 607.921875 102.1194875556 610.90625 99.2913625556 C 613.890625 96.4632375556 616.7890625 93.5335500556 619.6015625 90.5023000556 C 616.6640625 87.6273000556 613.5703125 84.9007375556 610.3203125 82.3226125556 C 607.0703125 79.7444875556 603.5390625 77.2054250556 599.7265625 74.7054250556 L 611.1171875 65.3773000556 C 612.6796875 68.5648000556 614.6484375 71.7757375556 617.0234375 75.0101125556 C 619.3984375 78.2444875556 622.0078125 81.4241750556 624.8515625 84.5491750556 C 627.4765625 81.5179250556 629.9609375 78.4085500556 632.3046875 75.2210500556 C 634.6484375 72.0335500556 636.8984375 68.7523000556 639.0546875 65.3773000556 L 646.5546875 71.7054250556 C 643.3359375 74.2679250556 640.2109375 76.9085500556 637.1796875 79.6273000556 C 634.1484375 82.3460500556 631.2265625 85.2054250556 628.4140625 88.2054250556 C 630.1015625 89.9554250556 631.796875 91.6429250556 633.5 93.2679250556 C 635.203125 94.8929250556 636.890625 96.4476125556 638.5625 97.9319875556 C 640.234375 99.4163625556 641.8515625 100.8148000556 643.4140625 102.1273000556 C 644.9765625 103.4398000556 646.4453125 104.6273000556 647.8203125 105.6898000556 L 638.5859375 113.5648000556 Z"/></svg>